<?xml version="1.0" encoding="UTF-8"?>
<svg xmlns="http://www.w3.org/2000/svg" xmlns:xlink="http://www.w3.org/1999/xlink" width="40pt" height="40pt" viewBox="0 0 40 40" version="1.1">
<g id="surface1">
<path style=" stroke:none;fill-rule:nonzero;fill:rgb(22.745098%,34.509804%,59.215686%);fill-opacity:1;" d="M 19.683594 1.511719 C 9.648438 1.511719 1.511719 9.648438 1.511719 19.683594 C 1.511719 29.71875 9.648438 37.851562 19.683594 37.851562 C 29.71875 37.851562 37.851562 29.71875 37.851562 19.683594 C 37.851562 9.648438 29.71875 1.511719 19.683594 1.511719 Z M 25.644531 20.695312 C 24.914062 20.683594 24.242188 20.707031 23.398438 20.667969 C 23.261719 20.664062 21.050781 20.695312 21.054688 20.734375 C 21.21875 21.71875 20.988281 22.761719 21 23.757812 C 21.011719 24.332031 21.175781 29.574219 21.101562 31.507812 L 16.722656 31.546875 C 16.703125 29.902344 16.785156 28.207031 16.714844 26.039062 C 16.699219 25.59375 16.683594 20.894531 16.628906 20.652344 C 16.628906 20.652344 14.695312 20.664062 13.789062 20.667969 C 13.789062 20.667969 13.777344 18.9375 13.777344 18.351562 C 13.777344 17.773438 13.777344 17.199219 13.777344 16.625 C 13.777344 16.625 16.039062 16.496094 16.683594 16.445312 C 16.683594 16.445312 16.753906 14.242188 16.84375 13.527344 C 16.945312 12.71875 16.953125 11.894531 17.433594 11.175781 C 18.308594 9.859375 19.175781 8.699219 20.78125 8.347656 C 21.390625 8.214844 25.402344 7.425781 25.550781 8.074219 L 25.457031 11.980469 C 24.371094 11.980469 23.058594 11.871094 21.945312 12.699219 C 21.328125 13.160156 21.15625 13.542969 21.097656 14.304688 C 21.054688 14.746094 21.050781 16.53125 21.050781 16.53125 C 21.636719 16.613281 22.507812 16.578125 23.136719 16.53125 C 23.851562 16.476562 25.6875 16.667969 25.6875 16.667969 C 25.683594 17.851562 25.636719 20.578125 25.644531 20.695312 Z M 25.644531 20.695312 "/>
</g>
</svg>
