<?xml version="1.0" encoding="UTF-8"?>
<svg xmlns="http://www.w3.org/2000/svg" xmlns:xlink="http://www.w3.org/1999/xlink" width="38pt" height="38pt" viewBox="0 0 38 38" version="1.1">
<g id="surface1">
<path style=" stroke:none;fill-rule:nonzero;fill:rgb(24.313725%,46.666667%,74.901961%);fill-opacity:1;" d="M 19.085938 0.980469 C 8.875 0.980469 0.597656 9.292969 0.597656 19.546875 C 0.597656 27.746094 5.894531 34.699219 13.246094 37.15625 C 14.167969 37.328125 14.503906 36.753906 14.503906 36.257812 C 14.503906 35.820312 14.488281 34.652344 14.480469 33.105469 C 9.332031 34.226562 8.25 30.613281 8.25 30.613281 C 7.40625 28.46875 6.199219 27.902344 6.199219 27.902344 C 4.519531 26.753906 6.324219 26.769531 6.324219 26.769531 C 8.179688 26.902344 9.15625 28.683594 9.15625 28.683594 C 10.804688 31.523438 13.484375 30.699219 14.539062 30.230469 C 14.707031 29.027344 15.179688 28.210938 15.710938 27.746094 C 11.609375 27.277344 7.289062 25.683594 7.289062 18.574219 C 7.289062 16.546875 8.011719 14.890625 9.195312 13.59375 C 9.003906 13.121094 8.363281 11.238281 9.375 8.679688 C 9.375 8.679688 10.929688 8.179688 14.457031 10.582031 C 15.933594 10.171875 17.515625 9.96875 19.089844 9.957031 C 20.65625 9.96875 22.238281 10.171875 23.714844 10.582031 C 27.246094 8.179688 28.796875 8.679688 28.796875 8.679688 C 29.800781 11.238281 29.167969 13.121094 28.980469 13.59375 C 30.167969 14.890625 30.878906 16.546875 30.878906 18.574219 C 30.878906 25.707031 26.554688 27.273438 22.4375 27.730469 C 23.101562 28.308594 23.695312 29.4375 23.695312 31.171875 C 23.695312 33.65625 23.671875 35.652344 23.671875 36.257812 C 23.671875 36.757812 24.007812 37.339844 24.941406 37.152344 C 32.28125 34.695312 37.574219 27.742188 37.574219 19.546875 C 37.574219 9.292969 29.292969 0.980469 19.085938 0.980469 Z M 19.085938 0.980469 "/>
<path style=" stroke:none;fill-rule:nonzero;fill:rgb(24.313725%,46.666667%,74.901961%);fill-opacity:1;" d="M 19.085938 0.980469 C 8.875 0.980469 0.597656 9.292969 0.597656 19.546875 C 0.597656 27.746094 5.894531 34.699219 13.246094 37.15625 C 14.167969 37.328125 14.503906 36.753906 14.503906 36.257812 C 14.503906 35.820312 14.488281 34.652344 14.480469 33.105469 C 9.332031 34.226562 8.25 30.613281 8.25 30.613281 C 7.40625 28.46875 6.199219 27.902344 6.199219 27.902344 C 4.519531 26.753906 6.324219 26.769531 6.324219 26.769531 C 8.179688 26.902344 9.15625 28.683594 9.15625 28.683594 C 10.804688 31.523438 13.484375 30.699219 14.539062 30.230469 C 14.707031 29.027344 15.179688 28.210938 15.710938 27.746094 C 11.609375 27.277344 7.289062 25.683594 7.289062 18.574219 C 7.289062 16.546875 8.011719 14.890625 9.195312 13.59375 C 9.003906 13.121094 8.363281 11.238281 9.375 8.679688 C 9.375 8.679688 10.929688 8.179688 14.457031 10.582031 C 15.933594 10.171875 17.515625 9.96875 19.089844 9.957031 C 20.65625 9.96875 22.238281 10.171875 23.714844 10.582031 C 27.246094 8.179688 28.796875 8.679688 28.796875 8.679688 C 29.800781 11.238281 29.167969 13.121094 28.980469 13.59375 C 30.167969 14.890625 30.878906 16.546875 30.878906 18.574219 C 30.878906 25.707031 26.554688 27.273438 22.4375 27.730469 C 23.101562 28.308594 23.695312 29.4375 23.695312 31.171875 C 23.695312 33.65625 23.671875 35.652344 23.671875 36.257812 C 23.671875 36.757812 24.007812 37.339844 24.941406 37.152344 C 32.28125 34.695312 37.574219 27.742188 37.574219 19.546875 C 37.574219 9.292969 29.292969 0.980469 19.085938 0.980469 Z M 19.085938 0.980469 "/>
<path style=" stroke:none;fill-rule:nonzero;fill:rgb(6.666667%,29.803922%,50.980392%);fill-opacity:1;" d="M 28.8125 8.734375 C 29.796875 11.257812 29.167969 13.125 28.980469 13.59375 C 30.167969 14.890625 30.878906 16.546875 30.878906 18.574219 C 30.878906 25.707031 26.554688 27.273438 22.4375 27.730469 C 23.101562 28.308594 23.691406 29.4375 23.691406 31.171875 C 23.691406 33.65625 23.671875 35.652344 23.671875 36.257812 C 23.671875 36.757812 24.003906 37.339844 24.941406 37.152344 C 32.28125 34.695312 37.574219 27.742188 37.574219 19.546875 C 37.574219 17.339844 37.1875 15.230469 36.484375 13.265625 C 33.941406 10.582031 31.101562 8.796875 28.8125 8.734375 Z M 28.8125 8.734375 "/>
<path style=" stroke:none;fill-rule:nonzero;fill:rgb(6.666667%,29.803922%,50.980392%);fill-opacity:1;" d="M 14.980469 28.726562 C 15.191406 28.3125 15.445312 27.980469 15.710938 27.746094 C 13.464844 27.488281 11.148438 26.890625 9.519531 25.230469 C 10.777344 27.320312 12.816406 28.269531 14.980469 28.726562 Z M 14.980469 28.726562 "/>
<path style=" stroke:none;fill-rule:nonzero;fill:rgb(42.352941%,66.27451%,91.764706%);fill-opacity:1;" d="M 1.5625 20.796875 C 1.5625 10.542969 9.835938 2.234375 20.046875 2.234375 C 25.714844 2.234375 30.785156 4.796875 34.175781 8.828125 C 30.828125 4.082031 25.316406 0.980469 19.085938 0.980469 C 8.875 0.980469 0.597656 9.292969 0.597656 19.546875 C 0.597656 24.113281 2.246094 28.300781 4.976562 31.53125 C 2.832031 28.5 1.5625 24.800781 1.5625 20.796875 Z M 1.5625 20.796875 "/>
<path style=" stroke:none;fill-rule:nonzero;fill:rgb(3.137255%,24.313725%,40%);fill-opacity:1;" d="M 24.65625 32.421875 C 24.65625 30.691406 24.066406 29.554688 23.398438 28.980469 C 27.515625 28.527344 31.839844 26.953125 31.839844 19.824219 C 31.839844 17.796875 31.125 16.144531 29.941406 14.84375 C 30.132812 14.371094 30.765625 12.488281 29.757812 9.933594 C 29.757812 9.933594 29.566406 9.875 29.167969 9.898438 C 29.601562 11.824219 29.136719 13.199219 28.980469 13.59375 C 30.167969 14.890625 30.878906 16.546875 30.878906 18.574219 C 30.878906 25.707031 26.554688 27.273438 22.4375 27.730469 C 23.101562 28.308594 23.691406 29.4375 23.691406 31.171875 C 23.691406 33.65625 23.671875 35.652344 23.671875 36.257812 C 23.671875 36.699219 23.929688 37.199219 24.632812 37.1875 C 24.636719 36.347656 24.65625 34.5625 24.65625 32.421875 Z M 24.65625 32.421875 "/>
<path style=" stroke:none;fill-rule:nonzero;fill:rgb(6.666667%,29.803922%,50.980392%);fill-opacity:1;" d="M 9.355469 32.207031 C 9.742188 33.003906 11.046875 34.917969 14.488281 34.515625 C 14.484375 34.09375 14.480469 33.625 14.480469 33.105469 C 11.824219 33.683594 10.253906 33 9.355469 32.207031 Z M 9.355469 32.207031 "/>
<path style=" stroke:none;fill-rule:nonzero;fill:rgb(42.352941%,66.27451%,91.764706%);fill-opacity:1;" d="M 10.015625 29.773438 C 9.898438 29.59375 9.675781 29.292969 9.355469 28.988281 C 9.5625 29.300781 9.785156 29.5625 10.015625 29.773438 Z M 10.015625 29.773438 "/>
</g>
</svg>
