<?xml version="1.0" encoding="UTF-8"?>
<svg xmlns="http://www.w3.org/2000/svg" xmlns:xlink="http://www.w3.org/1999/xlink" width="35pt" height="35pt" viewBox="0 0 35 35" version="1.1">
<g id="surface1">
<path style=" stroke:none;fill-rule:nonzero;fill:rgb(100%,47.45098%,46.27451%);fill-opacity:1;" d="M 17.613281 0.449219 C 12.523438 0.449219 7.980469 2.679688 4.90625 6.21875 C 3.972656 7.296875 3.167969 8.503906 2.53125 9.792969 L 8.183594 14.117188 C 8.839844 12.125 10.105469 10.421875 11.761719 9.210938 C 13.398438 8.023438 15.417969 7.3125 17.609375 7.3125 C 19.980469 7.3125 22.117188 8.152344 23.796875 9.527344 L 28.6875 4.644531 C 25.710938 2.050781 21.890625 0.449219 17.613281 0.449219 Z M 17.613281 0.449219 "/>
<path style=" stroke:none;fill-rule:nonzero;fill:rgb(89.019608%,26.666667%,22.745098%);fill-opacity:1;" d="M 2.535156 9.792969 L 8.183594 14.117188 C 8.84375 12.125 10.105469 10.421875 11.761719 9.210938 C 13.398438 8.019531 15.421875 7.3125 17.613281 7.3125 C 19.980469 7.3125 22.117188 8.152344 23.796875 9.527344 L 28.691406 4.644531 C 25.707031 2.054688 21.890625 0.449219 17.613281 0.449219 "/>
<path style=" stroke:none;fill-rule:nonzero;fill:rgb(95.686275%,84.313725%,17.254902%);fill-opacity:1;" d="M 7.683594 17.230469 C 7.683594 17.074219 7.695312 16.921875 7.699219 16.769531 C 7.742188 15.84375 7.90625 14.953125 8.183594 14.117188 L 2.535156 9.792969 C 1.492188 11.902344 0.890625 14.265625 0.824219 16.769531 C 0.820312 16.921875 0.808594 17.074219 0.808594 17.230469 C 0.808594 17.386719 0.820312 17.535156 0.824219 17.691406 C 0.886719 20.191406 1.492188 22.550781 2.53125 24.65625 L 8.179688 20.332031 C 7.90625 19.492188 7.742188 18.605469 7.699219 17.6875 C 7.695312 17.535156 7.683594 17.386719 7.683594 17.230469 Z M 7.683594 17.230469 "/>
<path style=" stroke:none;fill-rule:nonzero;fill:rgb(96.862745%,72.54902%,16.862745%);fill-opacity:1;" d="M 2.53125 24.65625 L 8.179688 20.332031 C 7.90625 19.492188 7.742188 18.605469 7.699219 17.6875 C 7.695312 17.535156 7.683594 17.386719 7.683594 17.230469 C 7.683594 17.074219 7.695312 16.921875 7.699219 16.769531 C 7.742188 15.84375 7.910156 14.953125 8.183594 14.113281 L 2.535156 9.792969 "/>
<path style=" stroke:none;fill-rule:nonzero;fill:rgb(34.901961%,78.823529%,43.137255%);fill-opacity:1;" d="M 23.191406 25.675781 C 21.679688 26.632812 19.769531 27.144531 17.613281 27.144531 C 16.347656 27.144531 15.144531 26.902344 14.039062 26.480469 C 13.21875 26.164062 12.457031 25.746094 11.761719 25.234375 C 10.105469 24.03125 8.839844 22.332031 8.183594 20.347656 L 2.53125 24.664062 C 3.167969 25.957031 3.96875 27.15625 4.902344 28.234375 C 7.980469 31.777344 12.523438 34.007812 17.613281 34.007812 C 19.152344 34.007812 20.664062 33.800781 22.109375 33.402344 C 24.511719 32.738281 26.726562 31.53125 28.5625 29.824219 Z M 23.191406 25.675781 "/>
<path style=" stroke:none;fill-rule:nonzero;fill:rgb(25.098039%,64.705882%,34.117647%);fill-opacity:1;" d="M 2.535156 24.664062 C 3.167969 25.957031 3.96875 27.15625 4.902344 28.234375 C 7.980469 31.777344 12.523438 34.007812 17.613281 34.007812 C 19.152344 34.007812 20.664062 33.800781 22.109375 33.402344 C 24.511719 32.738281 26.726562 31.53125 28.5625 29.824219 L 23.191406 25.675781 C 21.679688 26.632812 19.769531 27.144531 17.613281 27.144531 C 16.347656 27.144531 15.144531 26.902344 14.039062 26.480469 C 13.21875 26.164062 12.457031 25.746094 11.761719 25.234375 "/>
<path style=" stroke:none;fill-rule:nonzero;fill:rgb(5.882353%,68.235294%,95.686275%);fill-opacity:1;" d="M 33.269531 14 L 17.765625 14 L 17.765625 20.460938 L 26.625 20.460938 C 26.171875 22.613281 24.949219 24.570312 23.191406 25.675781 L 28.5625 29.824219 C 30.03125 28.460938 31.257812 26.746094 32.136719 24.761719 C 33.097656 22.589844 33.652344 19.988281 33.652344 17.125 C 33.652344 16.136719 33.5 15.074219 33.269531 14 Z M 33.269531 14 "/>
<path style=" stroke:none;fill-rule:nonzero;fill:rgb(25.098039%,52.941176%,92.941176%);fill-opacity:1;" d="M 28.5625 29.824219 C 30.03125 28.460938 31.265625 26.726562 32.148438 24.746094 C 33.109375 22.570312 33.65625 19.976562 33.65625 17.117188 C 33.65625 16.125 33.5 15.074219 33.269531 14 L 32.304688 14 "/>
<path style=" stroke:none;fill-rule:nonzero;fill:rgb(25.098039%,52.941176%,92.941176%);fill-opacity:1;" d="M 17.765625 16.691406 L 17.765625 20.460938 L 26.382812 20.460938 "/>
</g>
</svg>
